<mxfile host="app.diagrams.net" agent="Mozilla/5.0 (X11; Linux x86_64; rv:131.0) Gecko/20100101 Firefox/131.0" version="26.1.1">
  <diagram name="Page-1" id="2NqlzEO1OCfuQm_VBgB0">
    <mxGraphModel dx="1184" dy="612" grid="1" gridSize="10" guides="1" tooltips="1" connect="1" arrows="1" fold="1" page="1" pageScale="1" pageWidth="850" pageHeight="1100" math="0" shadow="0">
      <root>
        <mxCell id="0" />
        <mxCell id="1" parent="0" />
        <mxCell id="FaG77tfBz2SWmy6RBB7x-35" value="" style="rounded=0;whiteSpace=wrap;html=1;shadow=1;fillColor=light-dark(#FFFFFF,#FFFFFF);" vertex="1" parent="1">
          <mxGeometry x="1110" y="150" width="190" height="160" as="geometry" />
        </mxCell>
        <mxCell id="FaG77tfBz2SWmy6RBB7x-30" value="" style="edgeStyle=orthogonalEdgeStyle;rounded=0;orthogonalLoop=1;jettySize=auto;html=1;" edge="1" parent="1" source="FaG77tfBz2SWmy6RBB7x-28" target="FaG77tfBz2SWmy6RBB7x-29">
          <mxGeometry relative="1" as="geometry" />
        </mxCell>
        <mxCell id="FaG77tfBz2SWmy6RBB7x-28" value="" style="rounded=0;whiteSpace=wrap;html=1;" vertex="1" parent="1">
          <mxGeometry x="445" y="70" width="560" height="410" as="geometry" />
        </mxCell>
        <mxCell id="FaG77tfBz2SWmy6RBB7x-27" value="" style="edgeStyle=orthogonalEdgeStyle;rounded=0;orthogonalLoop=1;jettySize=auto;html=1;entryX=0.013;entryY=0.466;entryDx=0;entryDy=0;entryPerimeter=0;" edge="1" parent="1" source="FaG77tfBz2SWmy6RBB7x-26" target="FaG77tfBz2SWmy6RBB7x-24">
          <mxGeometry relative="1" as="geometry">
            <Array as="points">
              <mxPoint x="600" y="275" />
              <mxPoint x="600" y="270" />
            </Array>
          </mxGeometry>
        </mxCell>
        <mxCell id="FaG77tfBz2SWmy6RBB7x-26" value="" style="rounded=0;whiteSpace=wrap;html=1;shadow=1;" vertex="1" parent="1">
          <mxGeometry x="470" y="130" width="120" height="290" as="geometry" />
        </mxCell>
        <mxCell id="FaG77tfBz2SWmy6RBB7x-25" value="" style="edgeStyle=orthogonalEdgeStyle;rounded=0;orthogonalLoop=1;jettySize=auto;html=1;" edge="1" parent="1" source="FaG77tfBz2SWmy6RBB7x-24" target="FaG77tfBz2SWmy6RBB7x-22">
          <mxGeometry relative="1" as="geometry">
            <mxPoint x="850" y="279.9999999999999" as="targetPoint" />
          </mxGeometry>
        </mxCell>
        <mxCell id="FaG77tfBz2SWmy6RBB7x-24" value="" style="rounded=0;whiteSpace=wrap;html=1;shadow=0;" vertex="1" parent="1">
          <mxGeometry x="656" y="140" width="138" height="280" as="geometry" />
        </mxCell>
        <mxCell id="FaG77tfBz2SWmy6RBB7x-6" value="" style="edgeStyle=orthogonalEdgeStyle;rounded=0;orthogonalLoop=1;jettySize=auto;html=1;" edge="1" parent="1" source="FaG77tfBz2SWmy6RBB7x-4" target="FaG77tfBz2SWmy6RBB7x-5">
          <mxGeometry relative="1" as="geometry" />
        </mxCell>
        <mxCell id="FaG77tfBz2SWmy6RBB7x-4" value="" style="fontColor=#0066CC;verticalAlign=top;verticalLabelPosition=bottom;labelPosition=center;align=center;html=1;outlineConnect=0;fillColor=#CCCCCC;strokeColor=#6881B3;gradientColor=none;gradientDirection=north;strokeWidth=2;shape=mxgraph.networks.pc;" vertex="1" parent="1">
          <mxGeometry x="40" y="160" width="100" height="70" as="geometry" />
        </mxCell>
        <mxCell id="FaG77tfBz2SWmy6RBB7x-9" value="" style="edgeStyle=orthogonalEdgeStyle;rounded=0;orthogonalLoop=1;jettySize=auto;html=1;" edge="1" parent="1" source="FaG77tfBz2SWmy6RBB7x-5" target="FaG77tfBz2SWmy6RBB7x-7">
          <mxGeometry relative="1" as="geometry" />
        </mxCell>
        <mxCell id="FaG77tfBz2SWmy6RBB7x-5" value="" style="sketch=0;outlineConnect=0;fontColor=#232F3E;gradientColor=none;fillColor=#232F3D;strokeColor=none;dashed=0;verticalLabelPosition=bottom;verticalAlign=top;align=center;html=1;fontSize=12;fontStyle=0;aspect=fixed;pointerEvents=1;shape=mxgraph.aws4.source_code;" vertex="1" parent="1">
          <mxGeometry x="210" y="156" width="57" height="78" as="geometry" />
        </mxCell>
        <mxCell id="FaG77tfBz2SWmy6RBB7x-11" value="" style="edgeStyle=orthogonalEdgeStyle;rounded=0;orthogonalLoop=1;jettySize=auto;html=1;" edge="1" parent="1" source="FaG77tfBz2SWmy6RBB7x-7" target="FaG77tfBz2SWmy6RBB7x-10">
          <mxGeometry relative="1" as="geometry">
            <mxPoint x="459.9999999999998" y="194.94117647058818" as="sourcePoint" />
          </mxGeometry>
        </mxCell>
        <mxCell id="FaG77tfBz2SWmy6RBB7x-7" value="" style="shape=image;html=1;verticalAlign=top;verticalLabelPosition=bottom;labelBackgroundColor=#ffffff;imageAspect=0;aspect=fixed;image=https://cdn4.iconfinder.com/data/icons/socialcones/508/Gitlab-128.png" vertex="1" parent="1">
          <mxGeometry x="350" y="150" width="90" height="90" as="geometry" />
        </mxCell>
        <mxCell id="FaG77tfBz2SWmy6RBB7x-13" value="" style="edgeStyle=orthogonalEdgeStyle;rounded=0;orthogonalLoop=1;jettySize=auto;html=1;" edge="1" parent="1" source="FaG77tfBz2SWmy6RBB7x-10" target="FaG77tfBz2SWmy6RBB7x-12">
          <mxGeometry relative="1" as="geometry" />
        </mxCell>
        <mxCell id="FaG77tfBz2SWmy6RBB7x-10" value="Formatting" style="whiteSpace=wrap;html=1;aspect=fixed;" vertex="1" parent="1">
          <mxGeometry x="490" y="154" width="86" height="86" as="geometry" />
        </mxCell>
        <mxCell id="FaG77tfBz2SWmy6RBB7x-12" value="Linting" style="whiteSpace=wrap;html=1;aspect=fixed;" vertex="1" parent="1">
          <mxGeometry x="490" y="320" width="86" height="86" as="geometry" />
        </mxCell>
        <mxCell id="FaG77tfBz2SWmy6RBB7x-14" value="" style="sketch=0;outlineConnect=0;fontColor=#232F3E;gradientColor=none;fillColor=#ED7100;strokeColor=none;dashed=0;verticalLabelPosition=bottom;verticalAlign=top;align=center;html=1;fontSize=12;fontStyle=0;aspect=fixed;pointerEvents=1;shape=mxgraph.aws4.container_registry_image;" vertex="1" parent="1">
          <mxGeometry x="684" y="161" width="72" height="72" as="geometry" />
        </mxCell>
        <mxCell id="FaG77tfBz2SWmy6RBB7x-18" value="&lt;div&gt;Backend&amp;nbsp;&lt;/div&gt;&lt;div&gt;Image&lt;/div&gt;" style="text;html=1;align=center;verticalAlign=middle;resizable=0;points=[];autosize=1;strokeColor=none;fillColor=none;" vertex="1" parent="1">
          <mxGeometry x="680" y="233" width="80" height="40" as="geometry" />
        </mxCell>
        <mxCell id="FaG77tfBz2SWmy6RBB7x-19" value="" style="sketch=0;outlineConnect=0;fontColor=#232F3E;gradientColor=none;fillColor=#ED7100;strokeColor=none;dashed=0;verticalLabelPosition=bottom;verticalAlign=top;align=center;html=1;fontSize=12;fontStyle=0;aspect=fixed;pointerEvents=1;shape=mxgraph.aws4.container_registry_image;" vertex="1" parent="1">
          <mxGeometry x="684" y="290" width="72" height="72" as="geometry" />
        </mxCell>
        <mxCell id="FaG77tfBz2SWmy6RBB7x-21" value="&lt;div&gt;Frontend&lt;/div&gt;&lt;div&gt;&amp;nbsp;Image &lt;/div&gt;" style="text;html=1;align=center;verticalAlign=middle;resizable=0;points=[];autosize=1;strokeColor=none;fillColor=none;" vertex="1" parent="1">
          <mxGeometry x="676" y="366" width="80" height="40" as="geometry" />
        </mxCell>
        <mxCell id="FaG77tfBz2SWmy6RBB7x-22" value="" style="image;sketch=0;aspect=fixed;html=1;points=[];align=center;fontSize=12;image=img/lib/mscae/Docker.svg;" vertex="1" parent="1">
          <mxGeometry x="880" y="250" width="97.56" height="80" as="geometry" />
        </mxCell>
        <mxCell id="FaG77tfBz2SWmy6RBB7x-29" value="ArgoCD" style="rounded=0;whiteSpace=wrap;html=1;" vertex="1" parent="1">
          <mxGeometry x="1060" y="10" width="617" height="600" as="geometry" />
        </mxCell>
        <mxCell id="FaG77tfBz2SWmy6RBB7x-31" value="" style="verticalLabelPosition=bottom;html=1;verticalAlign=top;align=center;strokeColor=none;fillColor=#00BEF2;shape=mxgraph.azure.cloud_services_configuration_file;pointerEvents=1;" vertex="1" parent="1">
          <mxGeometry x="1130" y="170" width="60" height="60" as="geometry" />
        </mxCell>
        <mxCell id="FaG77tfBz2SWmy6RBB7x-32" value="" style="verticalLabelPosition=bottom;html=1;verticalAlign=top;align=center;strokeColor=none;fillColor=#00BEF2;shape=mxgraph.azure.cloud_services_configuration_file;pointerEvents=1;" vertex="1" parent="1">
          <mxGeometry x="1200" y="174" width="60" height="60" as="geometry" />
        </mxCell>
        <mxCell id="FaG77tfBz2SWmy6RBB7x-33" value="" style="verticalLabelPosition=bottom;html=1;verticalAlign=top;align=center;strokeColor=none;fillColor=#00BEF2;shape=mxgraph.azure.cloud_services_configuration_file;pointerEvents=1;" vertex="1" parent="1">
          <mxGeometry x="1130" y="240" width="60" height="60" as="geometry" />
        </mxCell>
        <mxCell id="FaG77tfBz2SWmy6RBB7x-34" value="" style="verticalLabelPosition=bottom;html=1;verticalAlign=top;align=center;strokeColor=none;fillColor=#00BEF2;shape=mxgraph.azure.cloud_services_configuration_file;pointerEvents=1;" vertex="1" parent="1">
          <mxGeometry x="1200" y="240" width="60" height="60" as="geometry" />
        </mxCell>
        <mxCell id="FaG77tfBz2SWmy6RBB7x-36" value="" style="image;html=1;image=img/lib/clip_art/computers/Server_128x128.png" vertex="1" parent="1">
          <mxGeometry x="1340" y="174" width="80" height="80" as="geometry" />
        </mxCell>
      </root>
    </mxGraphModel>
  </diagram>
</mxfile>
